<svg width="53" height="52" fill="none" xmlns="http://www.w3.org/2000/svg"><path d="m26.5.5.005 25.475L36.45 2.44l-9.936 23.54 18.37-18.01-18.362 18.017L50.52 16.24l-23.995 9.754L52.5 26l-25.974.005 23.995 9.753-24-9.744 18.364 18.017-18.37-18.01L36.45 49.56l-9.945-23.534L26.5 51.5l-.005-25.475L16.55 49.56l9.935-23.538-18.37 18.01 18.363-18.017L2.48 35.758l23.995-9.753L.5 26l25.974-.005L2.48 16.241l24 9.745L8.114 7.969l18.37 18.01L16.55 2.44l9.945 23.534L26.5.5Z" stroke="#fff" stroke-width="4"/></svg>