<svg width="183" height="177" fill="none" xmlns="http://www.w3.org/2000/svg"><path d="M35.757 171.885a26.55 26.55 0 0 0 15.667 5.099c8.201 0 16.295-3.76 21.504-10.827a.545.545 0 0 0 .079-.096l.018-.026.036-.052 18.432-25.386 18.432 25.386c.018.028.037.049.055.073a.425.425 0 0 1 .025.034c8.682 11.844 25.364 14.454 37.238 5.808 11.887-8.644 14.545-25.359 5.97-37.296l-.019-.03c-.016-.025-.028-.044-.048-.064l-18.392-25.401 29.799-9.715c13.997-4.563 21.69-19.699 17.136-33.724-4.554-14.025-19.647-21.733-33.658-17.183l-29.798 9.676-.013-31.41C118.206 12.005 106.225 0 91.506 0 76.788 0 64.807 12.004 64.794 26.765l-.027 31.382-29.798-9.675a.298.298 0 0 1-.094-.027c-13.984-4.497-29.023 3.211-33.564 17.21C-3.23 79.653 4.41 94.735 18.34 99.34a.362.362 0 0 1 .035.013l.049.019.022.008 29.785 9.715-18.392 25.401c-.007.013-.017.026-.027.04a.273.273 0 0 0-.026.04c-8.589 11.937-5.917 28.665 5.97 37.31Z" fill="#2F80ED"/></svg>